{"title":"The Reaping 2007 DVDrip English Klam","uid":6834738,"size":1522067541,"categoryP":"video","categoryS":"movies","magnet":"?xt=urn:btih:7723a6d71f78375395f87149db4ad657197f5d9d&amp;dn=The+Reaping+2007+DVDrip+English+Klam&amp;tr=udp%3A%2F%2Ftracker.openbittorrent.com%3A80&amp;tr=udp%3A%2F%2Fopen.demonii.com%3A1337&amp;tr=udp%3A%2F%2Ftracker.coppersurfer.tk%3A6969&amp;tr=udp%3A%2F%2Fexodus.desync.com%3A6969","seeders":0,"leechers":1,"uploader":"Klambake","files":-1,"time":1321987705,"description":"With: Hilary Swank, David Morrissey and Idris Elba\n\nDe voormalige missionaris Katherine Winter is volledig van haar geloof afgestapt sinds haar familie op tragische wijze door moord om het leven kwam. Vanaf dat moment staat haar leven in teken van het ontkrachten van het christelijke geloof. Wanneer zij echter een reeks mysterieuze gebeurtenissen in een kleine stad in Louisiana gaat onderzoeken, komt ze tot de conclusie dat de wetenschap niet overal een antwoord op heeft ...\n\nA former Christian missionary, who specializes in debunking religious phenomena, investigates a small town which seems to be suffering from the 10 biblical plagues.\n\n------------------ Dutch Friends ------------------\nYou can find my Friends at: http://www.Film-Test.nl \n------ They got my dutch subs ----- and more ------\n\nGeneral:\n\nComplete name                    : The Reaping\\The Reaping.avi\nFormat                           : AVI\nFormat/Info                      : Audio Video Interleave\nFile size                        : 1.42 GiB\nDuration                         : 1h 35mn\nOverall bit rate                 : 2 126 Kbps\n\nVideo:\n\nFormat                           : MPEG-4 Visual\nFormat profile                   : Simple@L3\nFormat settings, BVOP            : No\nFormat settings, QPel            : No\nFormat settings, GMC             : No warppoints\nFormat settings, Matrix          : Default (H.263)\nCodec ID                         : XVID\nCodec ID/Hint                    : XviD\nDuration                         : 1h 35mn\nBit rate                         : 1 731 Kbps\nWidth                            : 720 pixels\nHeight                           : 304 pixels\nDisplay aspect ratio             : 2.35:1\nFrame rate                       : 25.000 fps\nColor space                      : YUV\nChroma subsampling               : 4:2:0\nBit depth                        : 8 bits\nScan type                        : Progressive\nCompression mode                 : Lossy\nBits/(Pixel*Frame)               : 0.316\nStream size                      : 1.15 GiB (81%)\nWriting library                  : XviD 1.1.2 (UTC 2006-11-01)\n\nAudio:\n\nFormat                           : AC-3\nFormat/Info                      : Audio Coding 3\nMode extension                   : CM (complete main)\nCodec ID                         : 2000\nDuration                         : 1h 35mn\nBit rate mode                    : Constant\nBit rate                         : 384 Kbps\nChannel(s)                       : 6 channels\nChannel positions                : Front: L C R, Side: L R, LFE\nSampling rate                    : 48.0 KHz\nBit depth                        : 16 bits\nCompression mode                 : Lossy\nStream size                      : 262 MiB (18%)\nAlignment                        : Aligned on interleaves\nInterleave, duration             : 32 ms (0.80 video frame)\nInterleave, preload duration     : 704 ms\n","torrent":{"xt":"urn:btih:7723a6d71f78375395f87149db4ad657197f5d9d","amp;dn":"The+Reaping+2007+DVDrip+English+Klam","amp;tr":["udp%3A%2F%2Ftracker.openbittorrent.com%3A80","udp%3A%2F%2Fopen.demonii.com%3A1337","udp%3A%2F%2Ftracker.coppersurfer.tk%3A6969","udp%3A%2F%2Fexodus.desync.com%3A6969"],"infoHash":"7723a6d71f78375395f87149db4ad657197f5d9d","infoHashBuffer":{"type":"Buffer","data":[119,35,166,215,31,120,55,83,149,248,113,73,219,74,214,87,25,127,93,157]},"announce":[],"urlList":[]}}